<svg width="200" height="131" viewBox="0 0 200 131" fill="none" xmlns="http://www.w3.org/2000/svg">
<path d="M42.5931 71.6831C49.5899 59.1986 77.52 64.1947 90.6104 68.2533C102.901 68.2533 128.921 69.2479 134.683 73.2264C141.886 78.1995 137.427 83.3443 160.235 80.772C183.044 78.1996 200.879 90.5469 198.478 96.5491C196.077 102.551 188.36 103.066 178.413 104.609C170.456 105.844 158.063 102.151 152.861 100.15C157.606 102.894 167.095 110.303 167.095 117.985C167.095 127.589 151.146 130.847 127.481 129.818C103.815 128.789 123.88 104.609 106.902 108.382C89.9244 112.155 86.1517 103.409 67.9737 104.609C49.7957 105.81 56.8268 100.15 50.3102 90.5469C43.7935 80.9435 -1.30842 93.2908 1.09245 80.772C3.01314 70.7569 29.5598 70.5398 42.5931 71.6831Z" fill="#F9E6FF" stroke="white"/>
<path d="M55.1121 77.8568C58.4048 76.622 65.1729 77.7996 68.1454 78.5427L127.996 75.4557C128.624 76.4847 130.911 78.7828 135.027 79.743C140.171 80.9433 141.029 79.4 142.229 80.9434C143.43 82.4869 140.171 82.3154 142.229 86.0882C144.287 89.8609 142.915 93.6337 141.029 94.6627C139.142 95.6916 136.742 99.2929 132.969 99.6359C129.196 99.9789 128.339 98.0925 120.793 95.8631C114.757 94.0796 88.8958 91.4615 76.72 90.3754C74.2048 90.5469 67.8368 90.444 62.4863 88.6605C55.7982 86.4311 47.0522 86.0882 48.0811 82.3154C49.11 78.5426 52.5398 82.8298 53.3972 80.9434C54.2547 79.057 50.9964 79.4002 55.1121 77.8568Z" fill="#EFCEFF" stroke="#FCFCFC"/>
<path d="M71.7471 77.8566C74.7654 77.3079 79.2927 77.1707 81.1791 77.1707L97.4708 74.9413H125.767C125.767 76.9992 126.727 81.2521 130.568 81.8009C135.37 82.4869 142.916 87.9746 137.085 90.3754C131.254 92.7763 124.052 93.8052 119.079 98.4355C114.105 103.066 103.987 105.295 99.3572 102.037C94.7269 98.7784 89.0677 96.2061 81.1791 96.7206C73.2905 97.235 65.402 93.6337 64.2016 91.2329C63.0012 88.832 66.088 87.2886 67.6314 84.8877C69.1749 82.4869 68.3173 82.1439 66.088 81.1149C63.8586 80.086 63.8586 79.743 66.9454 77.1707C70.0322 74.5983 67.9744 78.5426 71.7471 77.8566Z" fill="#DBA5F5" stroke="#FCFCFC"/>
<path d="M75.6908 76.8276C79.395 69.968 86.3803 68.4817 89.41 68.596L107.245 62.7654C107.702 61.2792 109.783 58.5468 114.448 59.5071C120.278 60.7076 121.65 65.1663 124.223 67.7387C126.795 70.311 123.88 71.8544 126.109 73.2263C128.338 74.5983 130.225 74.5983 128.167 78.1996C126.109 81.8009 126.623 84.0302 123.194 86.7741C119.764 89.5179 116.163 88.489 111.189 89.3464C106.216 90.2039 106.559 91.7473 100.385 92.7762C94.2118 93.8052 94.2118 88.489 90.6105 89.3464C87.0092 90.2039 85.4658 89.6894 82.7219 88.489C79.9781 87.2886 81.6929 85.0592 80.1495 84.0302C78.6061 83.0013 71.0605 85.4021 75.6908 76.8276Z" fill="#D5F2EA" stroke="white"/>
<path fill-rule="evenodd" clip-rule="evenodd" d="M76.583 75.364C79.8783 73.1108 83.462 72.5225 85.4102 72.596L103.245 66.7654C103.703 65.2792 105.783 62.5468 110.448 63.5071C114.683 64.3791 116.566 66.9704 118.265 69.3091C118.905 70.1899 119.519 71.0349 120.223 71.7387C121.571 73.0873 121.412 74.1532 121.276 75.0598C121.152 75.8823 121.049 76.5737 122.109 77.2263C122.497 77.4651 122.875 77.6623 123.223 77.8442C124.876 78.7073 125.867 79.225 124.167 82.1996C123.436 83.4786 123.03 84.5846 122.656 85.602C122.387 86.3349 122.134 87.0219 121.789 87.6946C122.263 87.4474 122.73 87.1453 123.194 86.7741C125.406 85.0047 125.977 83.4493 126.656 81.602C127.03 80.5846 127.436 79.4786 128.167 78.1996C129.867 75.225 128.876 74.7073 127.223 73.8442C126.875 73.6623 126.497 73.4651 126.109 73.2263C125.049 72.5737 125.152 71.8823 125.276 71.0598C125.412 70.1532 125.571 69.0873 124.223 67.7387C123.519 67.0349 122.905 66.1899 122.265 65.3091C120.566 62.9704 118.683 60.3791 114.448 59.5071C109.783 58.5468 107.703 61.2792 107.245 62.7654L89.4102 68.596C86.6093 68.4903 80.4275 69.7526 76.583 75.364Z" fill="#B6E2D6"/>
<path d="M68.9436 9.79729L112.39 64.1639C112.39 67.4703 106.019 65.5561 102.743 67.2963C99.4668 69.0365 98.1927 73.9092 93.2783 75.6494C89.3468 77.0416 85.4516 77.3896 84.1775 75.6494L64.7716 11.9963C63.9998 9.46482 67.2915 7.72988 68.9436 9.79729Z" fill="#FFE29D"/>
<path fill-rule="evenodd" clip-rule="evenodd" d="M112.276 64.1639L68.8294 9.79731C67.1773 7.72989 63.8856 9.46484 64.6574 11.9963L64.9986 13.1155C65.2994 13.2646 65.5827 13.4886 65.8294 13.7973L107.843 66.3715C110.22 66.2357 112.276 66.0422 112.276 64.1639Z" fill="#FFCF5C"/>
<mask id="mask0_270_14240" style="mask-type:alpha" maskUnits="userSpaceOnUse" x="64" y="8" width="49" height="69">
<path d="M68.9436 9.79729L112.39 64.1639C112.39 67.4703 106.019 65.5561 102.743 67.2963C99.4668 69.0365 98.1927 73.9092 93.2783 75.6494C89.3468 77.0416 85.4516 77.3896 84.1775 75.6494L64.7716 11.9963C63.9998 9.46482 67.2915 7.72988 68.9436 9.79729Z" fill="#FFE29D" fill-opacity="0.7"/>
</mask>
<g mask="url(#mask0_270_14240)">
<path d="M76.2061 -12.8618L51.8545 45.9594M79.6359 -9.43198L55.2843 49.3892M83.0657 -6.00217L58.7141 52.819M86.4955 -2.57236L62.1439 56.2488M89.9254 0.857443L65.5737 59.6786M93.3552 4.28725L69.0035 63.1084M96.785 7.71706L72.4333 66.5382M100.215 11.1469L75.8631 69.9681M103.645 14.5767L79.293 73.3979M107.074 18.0065L82.7228 76.8277M110.504 21.4363L86.1526 80.2575M113.934 24.8661L89.5824 83.6873M117.364 28.2959L93.0122 87.1171M120.794 31.7257L96.442 90.5469M124.223 35.1555L99.8718 93.9767" stroke="#FFCF5C"/>
<path d="M37.3623 57.535L96.1835 81.8867M40.7921 54.1052L99.6133 78.4569M44.2219 50.6754L103.043 75.027M47.6517 47.2456L106.473 71.5972M51.0815 43.8158L109.903 68.1674M54.5113 40.386L113.333 64.7376M57.9411 36.9562L116.762 61.3078M61.371 33.5264L120.192 57.878M64.8008 30.0966L123.622 54.4482M68.2306 26.6668L127.052 51.0184M71.6604 23.237L130.482 47.5886M75.0902 19.8071L133.911 44.1588M78.52 16.3773L137.341 40.729M81.9498 12.9475L140.771 37.2992M85.3796 9.51772L144.201 33.8694" stroke="#FFCF5C"/>
</g>
</svg>
